<?xml version="1.0" encoding="UTF-8"?>
<!DOCTYPE svg PUBLIC "-//W3C//DTD SVG 1.1//EN" "http://www.w3.org/Graphics/SVG/1.1/DTD/svg11.dtd">
<svg xmlns="http://www.w3.org/2000/svg" version="1.1" width="40px" height="40px" viewBox="0 0 200 200" style="shape-rendering:geometricPrecision; text-rendering:geometricPrecision; image-rendering:optimizeQuality; fill-rule:evenodd; clip-rule:evenodd" xmlns:xlink="http://www.w3.org/1999/xlink">
    <g><path style="opacity:0.998" fill="#03a3cf" d="M 67.5,38.5 C 67.5,38.8333 67.5,39.1667 67.5,39.5C 68.1916,43.5999 69.1916,47.5999 70.5,51.5C 72.1054,54.3777 73.4388,57.3777 74.5,60.5C 77.4108,65.7461 81.0775,70.4127 85.5,74.5C 89.8414,78.8385 94.5081,82.8385 99.5,86.5C 104.511,92.8383 110.511,98.1716 117.5,102.5C 134,115.826 145.833,132.492 153,152.5C 155.334,160.672 156.501,169.005 156.5,177.5C 147.833,177.5 139.167,177.5 130.5,177.5C 130.5,174.167 130.5,170.833 130.5,167.5C 129.783,162.534 128.45,157.867 126.5,153.5C 125.167,150.833 123.833,148.167 122.5,145.5C 120.238,140.91 117.238,136.91 113.5,133.5C 113.167,132.5 112.5,131.833 111.5,131.5C 107.5,126.833 103.167,122.5 98.5,118.5C 93.0897,112.753 87.0897,107.753 80.5,103.5C 61.8558,89.0092 49.3558,70.3425 43,47.5C 41.7896,40.8883 41.2896,34.2217 41.5,27.5C 49.8333,27.5 58.1667,27.5 66.5,27.5C 66.7244,31.1788 67.0578,34.8455 67.5,38.5 Z"/></g>
    <g><path style="opacity:0.998" fill="#df5c1f" d="M 117.5,102.5 C 110.511,98.1716 104.511,92.8383 99.5,86.5C 103.807,82.5282 108.141,78.5282 112.5,74.5C 117.418,73.7186 122.418,73.2186 127.5,73C 132.521,66.5094 131.188,62.3427 123.5,60.5C 123.94,57.6202 124.94,54.9535 126.5,52.5C 129.413,51.7589 132.413,51.2589 135.5,51C 138.654,48.2251 139.154,45.0584 137,41.5C 135.211,39.771 133.044,39.1043 130.5,39.5C 130.5,38.8333 130.5,38.1667 130.5,37.5C 130.5,34.1667 130.5,30.8333 130.5,27.5C 139.167,27.5 147.833,27.5 156.5,27.5C 156.693,49.0918 149.86,68.0918 136,84.5C 130.089,90.8512 123.923,96.8512 117.5,102.5 Z"/></g>
    <g><path style="opacity:0.098" fill="#0a0a0b" d="M 130.5,37.5 C 130.5,38.1667 130.5,38.8333 130.5,39.5C 109.5,39.5 88.5,39.5 67.5,39.5C 67.5,39.1667 67.5,38.8333 67.5,38.5C 88.5755,38.8213 109.576,38.488 130.5,37.5 Z"/></g>
    <g><path style="opacity:1" fill="#2d323a" d="M 67.5,39.5 C 88.5,39.5 109.5,39.5 130.5,39.5C 133.044,39.1043 135.211,39.771 137,41.5C 139.154,45.0584 138.654,48.2251 135.5,51C 132.413,51.2589 129.413,51.7589 126.5,52.5C 108.007,51.5031 89.3408,51.1698 70.5,51.5C 69.1916,47.5999 68.1916,43.5999 67.5,39.5 Z"/></g>
    <g><path style="opacity:0.994" fill="#2d313a" d="M 74.5,60.5 C 90.8333,61.8333 107.167,61.8333 123.5,60.5C 131.188,62.3427 132.521,66.5094 127.5,73C 122.418,73.2186 117.418,73.7186 112.5,74.5C 103.5,73.1667 94.5,73.1667 85.5,74.5C 81.0775,70.4127 77.4108,65.7461 74.5,60.5 Z"/></g>
    <g><path style="opacity:0.997" fill="#e05c1f" d="M 80.5,103.5 C 87.0897,107.753 93.0897,112.753 98.5,118.5C 93.5271,122.806 88.8604,127.473 84.5,132.5C 83.8333,132.5 83.5,132.833 83.5,133.5C 78.8215,133.334 74.1548,133.501 69.5,134C 66.1654,136.679 65.6654,139.845 68,143.5C 70.277,144.117 72.4437,144.784 74.5,145.5C 72.8921,148.382 71.5587,151.382 70.5,154.5C 61.2621,153.226 58.0955,156.893 61,165.5C 62.4443,167.155 64.2776,167.822 66.5,167.5C 66.5,168.833 66.5,170.167 66.5,171.5C 66.5,173.5 66.5,175.5 66.5,177.5C 58.1667,177.5 49.8333,177.5 41.5,177.5C 42.32,146.363 55.32,121.697 80.5,103.5 Z"/></g>
    <g><path style="opacity:0.149" fill="#08090b" d="M 111.5,131.5 C 112.5,131.833 113.167,132.5 113.5,133.5C 103.5,133.5 93.5,133.5 83.5,133.5C 83.5,132.833 83.8333,132.5 84.5,132.5C 93.6822,132.827 102.682,132.493 111.5,131.5 Z"/></g>
    <g><path style="opacity:1" fill="#2c3039" d="M 83.5,133.5 C 93.5,133.5 103.5,133.5 113.5,133.5C 117.238,136.91 120.238,140.91 122.5,145.5C 106.5,145.5 90.5,145.5 74.5,145.5C 72.4437,144.784 70.277,144.117 68,143.5C 65.6654,139.845 66.1654,136.679 69.5,134C 74.1548,133.501 78.8215,133.334 83.5,133.5 Z"/></g>
    <g><path style="opacity:1" fill="#2c2f37" d="M 126.5,153.5 C 128.45,157.867 129.783,162.534 130.5,167.5C 109.5,167.5 88.5,167.5 67.5,167.5C 67.7678,169.099 67.4345,170.432 66.5,171.5C 66.5,170.167 66.5,168.833 66.5,167.5C 64.2776,167.822 62.4443,167.155 61,165.5C 58.0955,156.893 61.2621,153.226 70.5,154.5C 89.3408,154.83 108.007,154.497 126.5,153.5 Z"/></g>
</svg>
